<svg id="visual" viewBox="0 0 900 600" width="900" height="600" xmlns="http://www.w3.org/2000/svg" xmlns:xlink="http://www.w3.org/1999/xlink" version="1.1"><path d="M0 144L21.5 149.5C43 155 86 166 128.8 155.3C171.7 144.7 214.3 112.3 257.2 99.2C300 86 343 92 385.8 113.7C428.7 135.3 471.3 172.7 514.2 188C557 203.3 600 196.7 642.8 178.5C685.7 160.3 728.3 130.7 771.2 114.2C814 97.7 857 94.3 878.5 92.7L900 91L900 0L878.5 0C857 0 814 0 771.2 0C728.3 0 685.7 0 642.8 0C600 0 557 0 514.2 0C471.3 0 428.7 0 385.8 0C343 0 300 0 257.2 0C214.3 0 171.7 0 128.8 0C86 0 43 0 21.5 0L0 0Z" fill="#0D6B96" stroke-linecap="round" stroke-linejoin="miter"></path></svg>